<svg width="30" height="30" viewBox="0 0 30 30" fill="none" xmlns="http://www.w3.org/2000/svg">
  <!-- Основное здание -->
  <rect x="7" y="6" width="16" height="22" fill="currentColor"/>
  <!-- Плоская крыша -->
  <rect x="6" y="6" width="18" height="1.5" fill="currentColor"/>
  <!-- Ряды окон по этажам -->
  <rect x="9" y="8" width="2" height="2.5" fill="white" opacity="0.3"/>
  <rect x="13" y="8" width="2" height="2.5" fill="white" opacity="0.3"/>
  <rect x="17" y="8" width="2" height="2.5" fill="white" opacity="0.3"/>
  
  <rect x="9" y="12" width="2" height="2.5" fill="white" opacity="0.3"/>
  <rect x="13" y="12" width="2" height="2.5" fill="white" opacity="0.3"/>
  <rect x="17" y="12" width="2" height="2.5" fill="white" opacity="0.3"/>
  
  <rect x="9" y="16" width="2" height="2.5" fill="white" opacity="0.3"/>
  <rect x="13" y="16" width="2" height="2.5" fill="white" opacity="0.3"/>
  <rect x="17" y="16" width="2" height="2.5" fill="white" opacity="0.3"/>
  
  <rect x="9" y="20" width="2" height="2.5" fill="white" opacity="0.3"/>
  <rect x="13" y="20" width="2" height="2.5" fill="white" opacity="0.3"/>
  <rect x="17" y="20" width="2" height="2.5" fill="white" opacity="0.3"/>
  
  <rect x="9" y="24" width="2" height="2.5" fill="white" opacity="0.3"/>
  <rect x="13" y="24" width="2" height="2.5" fill="white" opacity="0.3"/>
  <rect x="17" y="24" width="2" height="2.5" fill="white" opacity="0.3"/>
  
  <!-- Входная дверь на первом этаже -->
  <rect x="11" y="25" width="3" height="3" fill="white" opacity="0.4"/>
</svg>