<svg width="30" height="30" viewBox="0 0 30 30" fill="none" xmlns="http://www.w3.org/2000/svg">
  <!-- Левое здание (меньше) -->
  <rect x="2" y="19" width="6" height="9" fill="currentColor"/>
  <path d="M5 15 L8 19 L2 19 Z" fill="currentColor"/>
  <rect x="3.5" y="22" width="1.5" height="3" fill="white" opacity="0.3"/>
  <rect x="3" y="20.5" width="1" height="1" fill="white" opacity="0.3"/>
  <rect x="5.5" y="20.5" width="1" height="1" fill="white" opacity="0.3"/>
  
  <!-- Центральное здание (выше и больше) -->
  <rect x="10" y="14" width="8" height="14" fill="currentColor"/>
  <path d="M14 8 L18 14 L10 14 Z" fill="currentColor"/>
  <rect x="12" y="18" width="2" height="4" fill="white" opacity="0.3"/>
  <rect x="14.5" y="18" width="2" height="4" fill="white" opacity="0.3"/>
  <rect x="11" y="16" width="1.5" height="1.5" fill="white" opacity="0.3"/>
  <rect x="15.5" y="16" width="1.5" height="1.5" fill="white" opacity="0.3"/>
  <!-- Шпиль или башенка -->
  <rect x="13.5" y="6" width="1" height="4" fill="currentColor"/>
  
  <!-- Правое здание (средний размер) -->
  <rect x="20" y="17" width="7" height="11" fill="currentColor"/>
  <path d="M23.5 12 L27 17 L20 17 Z" fill="currentColor"/>
  <rect x="22" y="21" width="1.5" height="3.5" fill="white" opacity="0.3"/>
  <rect x="24" y="21" width="1.5" height="3.5" fill="white" opacity="0.3"/>
  <rect x="21" y="19" width="1" height="1" fill="white" opacity="0.3"/>
  <rect x="25.5" y="19" width="1" height="1" fill="white" opacity="0.3"/>
</svg>